<?xml version="1.0" encoding="UTF-8"?>
<svg version="1.1" xmlns="http://www.w3.org/2000/svg" width="83" height="83">
<path d="M0 0 C0.88873306 -0.00428513 1.77746613 -0.00857025 2.69313049 -0.01298523 C4.56827952 -0.01871497 6.44345077 -0.0192388 8.31860352 -0.01489258 C11.178285 -0.01173325 14.03693069 -0.03520625 16.89648438 -0.06054688 C18.72265495 -0.06282016 20.5488283 -0.06352323 22.375 -0.0625 C23.22517197 -0.07170975 24.07534393 -0.08091949 24.95127869 -0.09040833 C29.92799877 -0.05186485 33.5084336 0.41235746 37.75390625 3.30078125 C40.08280877 6.75027696 39.99632431 9.81757729 39.98095703 13.90527344 C39.98124908 14.55934677 39.98154114 15.2134201 39.98184204 15.88731384 C39.98045301 18.04089808 39.96491233 20.19413274 39.94921875 22.34765625 C39.94548709 23.84409394 39.94264084 25.34053408 39.94064331 26.8369751 C39.93301885 30.76941715 39.91338063 34.70171072 39.89123535 38.63409424 C39.87075131 42.64927156 39.86163613 46.66447295 39.8515625 50.6796875 C39.83013355 58.55345344 39.79601201 66.42709886 39.75390625 74.30078125 C36.48755175 73.03587202 33.81796932 71.80711297 31.046875 69.65625 C30.04237305 68.88764648 30.04237305 68.88764648 29.01757812 68.10351562 C28.33244141 67.57048828 27.64730469 67.03746094 26.94140625 66.48828125 C21.7114459 62.43944113 16.43032414 58.70246163 10.75390625 55.30078125 C9.71492188 56.08582031 8.6759375 56.87085938 7.60546875 57.6796875 C-14.43784686 74.30078125 -14.43784686 74.30078125 -17.24609375 74.30078125 C-17.31566018 65.65146042 -17.3689386 57.00223617 -17.40153027 48.35269642 C-17.4171741 44.33618589 -17.43838867 40.31986703 -17.47241211 36.3034668 C-17.50505172 32.42607939 -17.52295642 28.54887613 -17.53072548 24.67136192 C-17.53626076 23.19339792 -17.54706994 21.71544379 -17.56328392 20.23755836 C-17.58512016 18.16441843 -17.58805821 16.09203561 -17.58666992 14.01879883 C-17.59333176 12.83965408 -17.59999359 11.66050934 -17.6068573 10.44563293 C-17.20686681 6.95883176 -16.32983408 5.09664551 -14.24609375 2.30078125 C-9.86768876 -0.38422836 -4.98032189 -0.00532636 0 0 Z M-9.24609375 9.30078125 C-9.33936091 10.86625173 -9.36354957 12.43590897 -9.35961914 14.00415039 C-9.35954361 15.00511246 -9.35946808 16.00607452 -9.35939026 17.03736877 C-9.35422897 18.12589645 -9.34906769 19.21442413 -9.34375 20.3359375 C-9.34233505 21.4443248 -9.3409201 22.5527121 -9.33946228 23.69468689 C-9.33384408 27.25091194 -9.3212885 30.80707508 -9.30859375 34.36328125 C-9.30358109 36.76757722 -9.29901778 39.17187417 -9.29492188 41.57617188 C-9.28386874 47.48439629 -9.26711292 53.39258435 -9.24609375 59.30078125 C-7.80566385 58.34660415 -6.36604054 57.39120936 -4.92675781 56.43530273 C-4.12498108 55.90339828 -3.32320435 55.37149384 -2.49713135 54.82347107 C0.90109124 52.52478048 4.14408957 50.02500291 7.39453125 47.5234375 C10.4077228 45.96196572 11.5394799 46.37762988 14.75390625 47.30078125 C16.77441406 48.51586914 16.77441406 48.51586914 18.70703125 50.0234375 C19.40828125 50.56162109 20.10953125 51.09980469 20.83203125 51.65429688 C21.54875 52.21826172 22.26546875 52.78222656 23.00390625 53.36328125 C24.44517482 54.48102563 25.88780799 55.59701345 27.33203125 56.7109375 C27.9652832 57.20730713 28.59853516 57.70367676 29.25097656 58.21508789 C30.57999952 59.39837743 30.57999952 59.39837743 31.75390625 59.30078125 C31.77917412 52.19833126 31.79673826 45.09589277 31.80883789 37.9934082 C31.81387974 35.57510953 31.82071303 33.15681392 31.8293457 30.73852539 C31.84141782 27.27098842 31.84713588 23.80349159 31.8515625 20.3359375 C31.85672379 19.24740982 31.86188507 18.15888214 31.86720276 17.03736877 C31.86727829 16.03640671 31.86735382 15.03544464 31.86743164 14.00415039 C31.86965225 13.11812637 31.87187286 12.23210236 31.87416077 11.31922913 C31.97818666 9.30379435 31.97818666 9.30379435 30.75390625 8.30078125 C27.88126569 8.19971251 25.03316997 8.16108453 22.16015625 8.16796875 C21.29829712 8.16701202 20.43643799 8.1660553 19.54846191 8.16506958 C17.72257413 8.16438775 15.89668394 8.16624221 14.07080078 8.17041016 C11.26589547 8.17575839 8.4611503 8.17046526 5.65625 8.1640625 C3.88671839 8.16472328 2.11718689 8.16600444 0.34765625 8.16796875 C-0.4971228 8.16594452 -1.34190186 8.16392029 -2.21228027 8.16183472 C-6.03796235 7.80153614 -6.03796235 7.80153614 -9.24609375 9.30078125 Z " fill="#000000" transform="translate(30.24609375,5.69921875)"/>
</svg>
