<?xml version="1.0" encoding="UTF-8"?>
<svg version="1.1" xmlns="http://www.w3.org/2000/svg" width="83" height="83">
<path d="M0 0 C6.73971167 4.09866834 10.42210841 11.1033262 12.5 18.5 C13.72589479 23.73791412 13.5 27.85287676 13.5 33.5 C-3 33.5 -19.5 33.5 -36.5 33.5 C-34.86794582 10.65124153 -34.86794582 10.65124153 -27.5 3.5 C-19.69076628 -2.2373962 -9.18958901 -4.05055671 0 0 Z M-20.5 8.5 C-24.05619435 11.96008098 -25.83973707 15.85126379 -27.5 20.5 C-27.5 22.15 -27.5 23.8 -27.5 25.5 C-16.94 25.5 -6.38 25.5 4.5 25.5 C3.24960748 15.35742909 3.24960748 15.35742909 -3.375 8.125 C-9.71197309 4.82977399 -14.33832842 5.09590735 -20.5 8.5 Z " fill="#000000" transform="translate(68.5,39.5)"/>
<path d="M0 0 C1.85625 -0.00386719 1.85625 -0.00386719 3.75 -0.0078125 C7 0.125 7 0.125 10 1.125 C9.61679443 3.80743901 8.92847619 5.22301411 7.3125 7.4375 C6.549375 7.994375 5.78625 8.55125 5 9.125 C2.99759451 8.80643549 0.99788438 8.47078768 -1 8.125 C-5.06331637 8.94864521 -8.17997313 10.41578757 -11.3125 13.125 C-13.82550333 17.59256147 -14.8002219 22.14592088 -16 27.125 C-10.39 27.125 -4.78 27.125 1 27.125 C0.67 29.765 0.34 32.405 0 35.125 C-8.25 35.125 -16.5 35.125 -25 35.125 C-25 23.63642793 -23.78124589 13.99637213 -16 5.125 C-11.01760144 0.79247952 -6.47890868 -0.01349773 0 0 Z " fill="#000000" transform="translate(26,37.875)"/>
<path d="M0 0 C3.78688673 3.02950939 4.97131462 4.79260761 6.0625 9.625 C6.42566409 13.78206976 5.63011029 16.28306927 3.1875 19.75 C-0.6886881 23.17546855 -3.78065049 24.4297081 -8.85546875 24.12890625 C-12.28807227 23.46431036 -14.24634024 22.07744722 -16.8125 19.75 C-19.39664484 15.63151916 -20.10925086 12.76902722 -19.25 8.0625 C-18.22283391 4.34060806 -17.00967543 2.07521849 -13.8125 -0.25 C-8.98799824 -1.85816725 -4.6231662 -2.05474053 0 0 Z M-8.8125 6.75 C-10.60219026 9.17672567 -10.60219026 9.17672567 -11.8125 11.75 C-10.8225 13.07 -9.8325 14.39 -8.8125 15.75 C-4.88174356 15.17547254 -4.88174356 15.17547254 -1.8125 12.75 C-2.17931658 9.81546739 -2.67687246 8.88562754 -4.8125 6.75 C-6.1325 6.75 -7.4525 6.75 -8.8125 6.75 Z " fill="#000000" transform="translate(63.8125,11.25)"/>
<path d="M0 0 C3.34160921 3.03076184 4.54030215 5.06380821 5.6875 9.4375 C5.49143421 14.27378936 4.64207055 17.48292945 1.1875 20.9375 C-3.04684601 23.47810761 -6.39841405 23.96670926 -11.3125 23.4375 C-14.98181783 21.80669208 -17.3959248 19.98316411 -19.3125 16.4375 C-20.35786779 11.80801406 -20.74000376 9.57038496 -19.0625 5.125 C-14.42837936 -1.99168526 -7.75037528 -3.6558374 0 0 Z M-11.125 7.6875 C-12.53822388 9.37208773 -12.53822388 9.37208773 -12.125 11.5 C-11.37779664 13.62462526 -11.37779664 13.62462526 -9.3125 15.4375 C-6.76536596 15.42827298 -6.76536596 15.42827298 -4.3125 14.4375 C-2.95229849 12.46991727 -2.95229849 12.46991727 -2.3125 10.4375 C-3.53840192 8.35772703 -3.53840192 8.35772703 -5.3125 6.4375 C-9.13064804 6.05901136 -9.13064804 6.05901136 -11.125 7.6875 Z " fill="#000000" transform="translate(33.3125,11.5625)"/>
</svg>
