<?xml version="1.0" encoding="UTF-8"?>
<svg version="1.1" xmlns="http://www.w3.org/2000/svg" width="83" height="83">
<path d="M0 0 C6.88767394 4.87568316 10.36024253 10.08072758 13 18 C13.58144099 25.94953741 13.91397801 33.10644159 9.77734375 40.16796875 C8.75327341 42.58148127 9.13013953 43.55010176 10 46 C11.3887684 47.79905507 11.3887684 47.79905507 13.16015625 49.453125 C13.78857422 50.071875 14.41699219 50.690625 15.06445312 51.328125 C15.72380859 51.96234375 16.38316406 52.5965625 17.0625 53.25 C17.72572266 53.8996875 18.38894531 54.549375 19.07226562 55.21875 C20.70829317 56.8194676 22.35090912 58.41276193 24 60 C21.525 62.97 21.525 62.97 19 66 C14.00030845 61.85131978 9.56206946 57.49038396 5.2109375 52.66015625 C3.11380229 50.71367646 3.11380229 50.71367646 0.40625 51.1484375 C-2.14033511 51.97880206 -2.14033511 51.97880206 -4.875 53.5625 C-11.41086159 56.45777202 -19.87486443 56.00583857 -26.69140625 54.34375 C-34.63223961 51.13979637 -40.82215294 45.61400686 -44.30859375 37.796875 C-47.03683384 30.70653353 -47.32145895 20.96140554 -45 13.625 C-41.55125637 6.17441235 -35.36082987 0.39730609 -28 -3 C-19.14698651 -5.89842535 -7.7719249 -5.1660442 0 0 Z M-31 9 C-36.07711455 14.23181887 -38.51166225 18.67493377 -39 26 C-38.16279216 32.87041991 -35.2754394 38.15350074 -30.0625 42.75 C-23.95375646 47.23805648 -18.41749486 47.82300856 -11 47 C-4.82345906 45.23376312 -0.47725944 41.32662991 3 36 C5.77009837 30.19417738 6.12070508 23.91911238 4.34765625 17.71875 C1.47271294 11.3025675 -3.62367449 6.83671174 -10 4 C-18.16160373 2.11655299 -24.48379793 3.78703835 -31 9 Z " fill="#000000" transform="translate(52,10)"/>
</svg>
