<?xml version="1.0" encoding="UTF-8"?>
<svg version="1.1" xmlns="http://www.w3.org/2000/svg" width="153" height="168">
<path d="M0 0 C1.33609786 0.82538864 2.65960578 1.67155729 3.96875 2.5390625 C6.86209771 4.44843771 9.87786395 6.11342738 12.8984375 7.8125 C13.51589844 7.43738281 14.13335937 7.06226563 14.76953125 6.67578125 C16.54238512 5.60451339 18.3200603 4.54119834 20.1015625 3.484375 C21.85587185 2.43570963 23.59783235 1.36578974 25.3203125 0.265625 C28.83678479 -1.89276144 31.16556354 -3.14752506 35.3359375 -3.375 C40.34770562 -1.70441063 44.52991795 0.87415054 48.8984375 3.8125 C49.81810303 4.23885742 49.81810303 4.23885742 50.75634766 4.67382812 C52.98649088 5.862486 54.34214558 6.8063002 55.8984375 8.8125 C56.90469302 14.28583204 56.37271422 19.84423122 56.09375 25.375 C56.04821315 28.71436875 56.07315976 31.57334939 56.8984375 34.8125 C59.56009824 37.41488802 62.44574993 38.533512 65.8984375 39.8125 C67.7176258 40.88456403 69.53167224 41.96550672 71.3359375 43.0625 C74.56706103 45.02869806 74.56706103 45.02869806 77.8984375 46.8125 C77.8984375 55.7225 77.8984375 64.6325 77.8984375 73.8125 C67.64453125 79.671875 67.64453125 79.671875 65.78076172 80.73242188 C64.49599477 81.46962148 63.21654905 82.21615345 61.94189453 82.97070312 C57.10908565 85.8125 57.10908565 85.8125 54.8984375 85.8125 C54.86288443 90.1472743 54.90513826 94.47801483 54.9609375 98.8125 C54.94450195 100.64361328 54.94450195 100.64361328 54.92773438 102.51171875 C55.06497926 110.50303815 55.06497926 110.50303815 58.98828125 117.2109375 C60.26798983 118.43666576 61.57197074 119.63753202 62.8984375 120.8125 C64.14436887 122.09019456 65.38397248 123.37408999 66.6171875 124.6640625 C67.875 125.92447917 69.13542207 127.18229704 70.3984375 128.4375 C71.33623047 129.38109375 71.33623047 129.38109375 72.29296875 130.34375 C75.38713536 133.43151047 78.52511962 136.39169814 81.8671875 139.2109375 C82.8675 140.06945312 83.8678125 140.92796875 84.8984375 141.8125 C84.8984375 142.1425 84.8984375 142.4725 84.8984375 142.8125 C82.765625 143.19140625 82.765625 143.19140625 79.8984375 142.8125 C77.72054673 140.83934283 75.90960174 138.97116683 74.0234375 136.75 C72.95917531 135.54873269 71.89407712 134.34820549 70.828125 133.1484375 C70.32120117 132.56932617 69.81427734 131.99021484 69.29199219 131.39355469 C64.47988933 125.933993 59.19755717 120.55089059 52.8984375 116.8125 C46.15528086 116.8125 41.69203872 119.4388673 35.93359375 122.73046875 C32.01620018 124.12701704 30.62380568 123.56251208 26.8984375 121.8125 C24.65737843 120.53493664 22.44914609 119.19843147 20.2734375 117.8125 C18.15473898 116.469176 16.03041105 115.13465414 13.8984375 113.8125 C13.24875 113.32394531 12.5990625 112.83539063 11.9296875 112.33203125 C9.64402681 111.52323592 9.64402681 111.52323592 6.65625 113.26171875 C5.43555652 113.99174132 4.22481922 114.73861477 3.0234375 115.5 C1.81861099 116.23455552 0.61288917 116.96764467 -0.59375 117.69921875 C-1.17987061 118.05677246 -1.76599121 118.41432617 -2.36987305 118.78271484 C-9.14637047 122.8125 -9.14637047 122.8125 -13.0390625 122.8125 C-16.40642785 121.71295213 -18.59367858 120.21228301 -21.375 118.07421875 C-23.25293317 116.62831818 -23.25293317 116.62831818 -26.2265625 115.25 C-31.7015625 112.5125 -31.7015625 112.5125 -34.1015625 109.8125 C-34.76404081 105.92712284 -34.61583346 102.11590161 -34.4765625 98.1875 C-34.46238281 97.1253125 -34.44820312 96.063125 -34.43359375 94.96875 C-34.28493924 87.17925347 -34.28493924 87.17925347 -33.1015625 84.8125 C-34.13796875 84.43738281 -34.13796875 84.43738281 -35.1953125 84.0546875 C-38.54460973 82.62313304 -41.50497223 80.85478136 -44.6015625 78.9375 C-45.705 78.25945312 -46.8084375 77.58140625 -47.9453125 76.8828125 C-48.986875 76.19960937 -50.0284375 75.51640625 -51.1015625 74.8125 C-52.05160156 74.29429688 -53.00164063 73.77609375 -53.98046875 73.2421875 C-57.45580048 69.26123661 -56.70673189 64.90175912 -56.5390625 59.8125 C-56.53326172 58.81476563 -56.52746094 57.81703125 -56.52148438 56.7890625 C-56.38262695 48.50205151 -56.38262695 48.50205151 -54.1015625 44.8125 C-52.2890625 43.5390625 -52.2890625 43.5390625 -50.1015625 42.4375 C-46.55048219 40.57548873 -43.05489065 38.66424981 -39.6015625 36.625 C-38.34859375 35.89216797 -38.34859375 35.89216797 -37.0703125 35.14453125 C-34.97006976 33.95800741 -34.97006976 33.95800741 -34.1015625 31.8125 C-34.22165419 27.24100953 -36.3521038 25.13607347 -39.45507812 22.10742188 C-40.01904297 21.57697266 -40.58300781 21.04652344 -41.1640625 20.5 C-41.73189453 19.95021484 -42.29972656 19.40042969 -42.88476562 18.83398438 C-44.28147175 17.48422635 -45.69035087 16.14708475 -47.1015625 14.8125 C-46.7715625 14.1525 -46.4415625 13.4925 -46.1015625 12.8125 C-42.1415625 16.7725 -38.1815625 20.7325 -34.1015625 24.8125 C-32.39083186 21.39103871 -32.85492844 17.19452236 -32.84765625 13.3984375 C-32.71003201 9.71879983 -32.40836585 8.12501373 -29.79296875 5.4609375 C-26.97270103 3.73357469 -24.19599771 2.23539675 -21.203125 0.83984375 C-19.08150333 -0.15061006 -19.08150333 -0.15061006 -17.125 -1.43359375 C-10.62263029 -5.3842367 -6.33002686 -3.57681815 0 0 Z " fill="#FCA401" transform="translate(65.1015625,25.1875)"/>
<path d="M0 0 C1.33609786 0.82538864 2.65960578 1.67155729 3.96875 2.5390625 C6.86209771 4.44843771 9.87786395 6.11342738 12.8984375 7.8125 C13.51589844 7.43738281 14.13335937 7.06226563 14.76953125 6.67578125 C16.54238512 5.60451339 18.3200603 4.54119834 20.1015625 3.484375 C21.85587185 2.43570963 23.59783235 1.36578974 25.3203125 0.265625 C28.83678479 -1.89276144 31.16556354 -3.14752506 35.3359375 -3.375 C40.34770562 -1.70441063 44.52991795 0.87415054 48.8984375 3.8125 C49.81810303 4.23885742 49.81810303 4.23885742 50.75634766 4.67382812 C52.98649088 5.862486 54.34214558 6.8063002 55.8984375 8.8125 C56.90469302 14.28583204 56.37271422 19.84423122 56.09375 25.375 C56.04821315 28.71436875 56.07315976 31.57334939 56.8984375 34.8125 C59.56009824 37.41488802 62.44574993 38.533512 65.8984375 39.8125 C67.7176258 40.88456403 69.53167224 41.96550672 71.3359375 43.0625 C74.56706103 45.02869806 74.56706103 45.02869806 77.8984375 46.8125 C77.8984375 55.7225 77.8984375 64.6325 77.8984375 73.8125 C67.64453125 79.671875 67.64453125 79.671875 65.77514648 80.73144531 C64.5041672 81.463577 63.24335114 82.2135904 61.99243164 82.97949219 C57.260489 85.83883102 57.260489 85.83883102 53.4609375 85.5625 C52.1925 85.19125 52.1925 85.19125 50.8984375 84.8125 C50.8984375 84.1525 50.8984375 83.4925 50.8984375 82.8125 C49.50625 82.4103125 49.50625 82.4103125 48.0859375 82 C45.01290437 80.85514452 44.02201737 80.12913259 41.8984375 77.8125 C38.19356822 75.38517185 36.87017648 75.8125 31.8984375 75.8125 C31.8984375 65.5825 31.8984375 55.3525 31.8984375 44.8125 C28.9284375 44.3175 28.9284375 44.3175 25.8984375 43.8125 C23.02399778 42.22848571 20.31641764 40.49980949 17.578125 38.6953125 C14.72798218 36.85347492 12.28370445 35.34093191 8.8984375 34.8125 C8.8984375 35.4725 8.8984375 36.1325 8.8984375 36.8125 C6.17846015 38.32962598 3.44613436 39.82301422 0.7109375 41.3125 C-0.05798828 41.74175781 -0.82691406 42.17101562 -1.61914062 42.61328125 C-9.03606486 46.62415015 -9.03606486 46.62415015 -13.1015625 45.8125 C-18.47719587 43.0298192 -22.5612336 38.45324649 -26.36328125 33.83984375 C-28.12757889 31.65318742 -28.12757889 31.65318742 -30.80078125 29.6640625 C-34.12021925 25.54998824 -33.6304209 22.34871227 -33.2265625 17.25 C-33.19820312 16.39986328 -33.16984375 15.54972656 -33.140625 14.67382812 C-32.87779692 10.48500568 -32.72367887 8.47004679 -29.76953125 5.34765625 C-26.94177921 3.72056027 -24.15813166 2.21774012 -21.203125 0.83984375 C-19.08150333 -0.15061006 -19.08150333 -0.15061006 -17.125 -1.43359375 C-10.62263029 -5.3842367 -6.33002686 -3.57681815 0 0 Z " fill="#FCAF01" transform="translate(65.1015625,25.1875)"/>
<path d="M0 0 C4.64291078 0.56384495 8.13560756 2.61804616 12.0625 5 C15.64686157 7.16043711 18.88914611 9.05361637 23 10 C24.34217439 12.68434877 24.12961685 14.77503134 24.1328125 17.77734375 C24.13474609 19.50694336 24.13474609 19.50694336 24.13671875 21.27148438 C24.13285156 22.48126953 24.12898438 23.69105469 24.125 24.9375 C24.13080078 26.74637695 24.13080078 26.74637695 24.13671875 28.59179688 C24.13542969 29.74615234 24.13414063 30.90050781 24.1328125 32.08984375 C24.13168457 33.15066162 24.13055664 34.21147949 24.12939453 35.30444336 C24 38 24 38 23 41 C23.86625 40.7525 24.7325 40.505 25.625 40.25 C30.0912089 39.91916971 31.47211091 41.33608375 35 44 C37.30689223 45.38413534 39.65232868 46.68530406 42 48 C42 48.66 42 49.32 42 50 C43.98 50.495 43.98 50.495 46 51 C45.99045288 52.16402344 45.99045288 52.16402344 45.98071289 53.3515625 C45.9719745 56.90199757 46.01679795 60.4498651 46.0625 64 C46.04606445 65.83111328 46.04606445 65.83111328 46.02929688 67.69921875 C46.16654176 75.69053815 46.16654176 75.69053815 50.08984375 82.3984375 C51.36955233 83.62416576 52.67353324 84.82503202 54 86 C55.24593137 87.27769456 56.48553498 88.56158999 57.71875 89.8515625 C58.9765625 91.11197917 60.23698457 92.36979704 61.5 93.625 C62.43779297 94.56859375 62.43779297 94.56859375 63.39453125 95.53125 C66.48869786 98.61901047 69.62668212 101.57919814 72.96875 104.3984375 C73.9690625 105.25695312 74.969375 106.11546875 76 107 C76 107.33 76 107.66 76 108 C73.8671875 108.37890625 73.8671875 108.37890625 71 108 C68.82210923 106.02684283 67.01116424 104.15866683 65.125 101.9375 C64.06073781 100.73623269 62.99563962 99.53570549 61.9296875 98.3359375 C61.42276367 97.75682617 60.91583984 97.17771484 60.39355469 96.58105469 C55.58145183 91.121493 50.29911967 85.73839059 44 82 C43.01 82 42.02 82 41 82 C40.34 81.67 39.68 81.34 39 81 C39 80.34 39 79.68 39 79 C39.66 79 40.32 79 41 79 C38.59571346 74.50541566 35.52814534 71.19109753 31.9765625 67.60546875 C31.3933725 67.01325027 30.8101825 66.4210318 30.20932007 65.81086731 C28.97983642 64.56693208 27.74757055 63.32574129 26.51269531 62.0871582 C24.62573249 60.18823713 22.7582351 58.27144908 20.890625 56.35351562 C19.69125646 55.14468897 18.49077285 53.93696741 17.2890625 52.73046875 C16.73368805 52.15556198 16.1783136 51.58065521 15.60610962 50.98832703 C13.12275742 48.53342563 11.63810763 47.07899611 8.10693359 46.6418457 C7.41164551 46.76003662 6.71635742 46.87822754 6 47 C6 47.99 6 48.98 6 50 C0.25 50.125 0.25 50.125 -2 49 C-2 48.34 -2 47.68 -2 47 C-2.83337891 46.8453125 -2.83337891 46.8453125 -3.68359375 46.6875 C-6.47821321 45.85806825 -8.5953498 44.54801581 -11.0625 43 C-13.76080698 41.31203653 -15.97148084 40.00950639 -19 39 C-20.0126229 32.67110687 -20.01465199 26.57684896 -19.83984375 20.171875 C-20.07624281 15.49002041 -21.58981698 13.10016638 -25 10 C-24.01 10 -23.02 10 -22 10 C-16.5758629 9.53878595 -12.89135257 8.14810189 -8.1875 5.4375 C-2.17706237 2 -2.17706237 2 0 2 C0 1.34 0 0.68 0 0 Z " fill="#FED921" transform="translate(74,60)"/>
<path d="M0 0 C5.95982408 4.9489991 11.45942623 10.27609206 16.9375 15.75 C17.81212891 16.61238281 18.68675781 17.47476563 19.58789062 18.36328125 C20.82635742 19.59884766 20.82635742 19.59884766 22.08984375 20.859375 C22.84128662 21.60670898 23.59272949 22.35404297 24.36694336 23.12402344 C26 25 26 25 26 27 C26.928125 27.3403125 26.928125 27.3403125 27.875 27.6875 C30.6219805 29.38416443 30.86635273 31.05251711 32 34 C32.99 34.33 33.98 34.66 35 35 C36.92875449 37.90858586 37.2480674 40.25080789 37.23046875 43.6953125 C37.22853516 44.57574219 37.22660156 45.45617187 37.22460938 46.36328125 C37.20624023 47.73033203 37.20624023 47.73033203 37.1875 49.125 C37.18685547 50.04410156 37.18621094 50.96320313 37.18554688 51.91015625 C37.14055525 58.71888951 37.14055525 58.71888951 36 61 C34.06522756 61.7338792 32.12785998 62.46191603 30.17578125 63.1484375 C27.71935011 64.04574263 27.71935011 64.04574263 24.5625 66 C23.38108009 66.67738297 22.19320974 67.34360743 21 68 C20.32324219 68.37382813 19.64648438 68.74765625 18.94921875 69.1328125 C15.32613934 70.76738119 13.13047254 71.39370503 9.296875 70.05859375 C6.41040095 68.51457202 3.71492965 66.82810449 1 65 C0.12085938 64.43539062 -0.75828125 63.87078125 -1.6640625 63.2890625 C-7.52556818 59.47443182 -7.52556818 59.47443182 -9 58 C-9.25248182 54.40287663 -9.18522846 50.79243401 -9.1875 47.1875 C-9.19974609 46.17623047 -9.21199219 45.16496094 -9.22460938 44.12304688 C-9.22654297 43.14787109 -9.22847656 42.17269531 -9.23046875 41.16796875 C-9.23457764 40.27360107 -9.23868652 39.3792334 -9.24291992 38.45776367 C-8.98290555 35.82704538 -8.39533034 34.23048252 -7 32 C-5.1875 30.7265625 -5.1875 30.7265625 -3 29.625 C0.55108031 27.76298873 4.04667185 25.85174981 7.5 23.8125 C8.3353125 23.32394531 9.170625 22.83539063 10.03125 22.33203125 C12.13149274 21.14550741 12.13149274 21.14550741 13 19 C12.88025631 14.42579096 10.77195106 12.3907803 7.64648438 9.39257812 C6.80053711 8.61043945 6.80053711 8.61043945 5.9375 7.8125 C3.91088554 5.91010481 1.94633772 3.98743686 0 2 C0 1.34 0 0.68 0 0 Z " fill="#FCBC01" transform="translate(18,38)"/>
<path d="M0 0 C1.99785661 1.21774117 3.93108807 2.4932269 5.86328125 3.8125 C6.92289063 4.36679687 7.9825 4.92109375 9.07421875 5.4921875 C11.86328125 7.8125 11.86328125 7.8125 12.484375 11.44921875 C12.45399375 12.80052381 12.3918837 14.15142715 12.30078125 15.5 C12.28208984 16.18900391 12.26339844 16.87800781 12.24414062 17.58789062 C12.06126435 22.6145169 12.06126435 22.6145169 10.86328125 23.8125 C10.82264293 25.47867115 10.82056025 27.14638095 10.86328125 28.8125 C11.19328125 28.8125 11.52328125 28.8125 11.86328125 28.8125 C12.35828125 31.7825 12.35828125 31.7825 12.86328125 34.8125 C11.54328125 34.8125 10.22328125 34.8125 8.86328125 34.8125 C8.86328125 35.4725 8.86328125 36.1325 8.86328125 36.8125 C6.1433039 38.32962598 3.41097811 39.82301422 0.67578125 41.3125 C-0.09314453 41.74175781 -0.86207031 42.17101562 -1.65429688 42.61328125 C-9.07122111 46.62415015 -9.07122111 46.62415015 -13.13671875 45.8125 C-18.51235212 43.0298192 -22.59638985 38.45324649 -26.3984375 33.83984375 C-28.16273514 31.65318742 -28.16273514 31.65318742 -30.8359375 29.6640625 C-34.1553755 25.54998824 -33.66557715 22.34871227 -33.26171875 17.25 C-33.23335937 16.39986328 -33.205 15.54972656 -33.17578125 14.67382812 C-32.91295317 10.48500568 -32.75883512 8.47004679 -29.8046875 5.34765625 C-26.97693546 3.72056027 -24.19328791 2.21774012 -21.23828125 0.83984375 C-19.11665958 -0.15061006 -19.11665958 -0.15061006 -17.16015625 -1.43359375 C-10.63075756 -5.40065869 -6.36680363 -3.53840641 0 0 Z " fill="#FCA401" transform="translate(65.13671875,25.1875)"/>
<path d="M0 0 C2.32322749 0.82276549 3.4470666 1.73031903 5.18597412 3.46102905 C6.05642365 4.31729385 6.05642365 4.31729385 6.94445801 5.19085693 C7.55815247 5.81062408 8.17184692 6.43039124 8.80413818 7.06893921 C9.4421637 7.70409454 10.08018921 8.33924988 10.73754883 8.99365234 C12.08261084 10.3366747 13.423899 11.68348577 14.76165771 13.03378296 C16.81555286 15.10375843 18.88497366 17.15723201 20.95648193 19.20956421 C22.2608306 20.5158948 23.56424861 21.82315544 24.86663818 23.13143921 C25.48842957 23.7471579 26.11022095 24.36287659 26.75085449 24.99725342 C31.06976318 29.38810561 31.06976318 29.38810561 31.06976318 32.73300171 C30.40976318 32.73300171 29.74976318 32.73300171 29.06976318 32.73300171 C28.73976318 33.72300171 28.40976318 34.71300171 28.06976318 35.73300171 C25.84871152 37.15976999 23.72809301 38.36660864 21.38226318 39.54550171 C20.76931396 39.88259155 20.15636475 40.2196814 19.52484131 40.56698608 C16.39754051 42.15550897 14.50879343 42.81303033 11.02679443 42.17831421 C7.70004122 40.55229216 4.58008245 38.76700809 1.44476318 36.79550171 C0.33874756 36.10585327 -0.76726807 35.41620483 -1.90679932 34.70565796 C-8.83097634 30.18794556 -8.83097634 30.18794556 -9.68023682 26.29550171 C-9.79254502 24.7765332 -9.87197844 23.25500185 -9.93023682 21.73300171 C-9.98179932 20.74944702 -10.03336182 19.76589233 -10.08648682 18.75253296 C-10.26132543 12.88815449 -10.22445374 8.6743271 -6.93023682 3.73300171 C-5.94023682 3.73300171 -4.95023682 3.73300171 -3.93023682 3.73300171 C-3.93023682 2.74300171 -3.93023682 1.75300171 -3.93023682 0.73300171 C-1.93023682 -0.26699829 -1.93023682 -0.26699829 0 0 Z " fill="#FCBC01" transform="translate(83.93023681640625,106.26699829101563)"/>
<path d="M0 0 C3.125 1.75 3.125 1.75 6 4 C7.27985015 4.76999115 8.57180696 5.5202119 9.875 6.25 C10.90625 6.8275 11.9375 7.405 13 8 C13 8.66 13 9.32 13 10 C14.32 10.33 15.64 10.66 17 11 C16.99045288 12.16402344 16.99045288 12.16402344 16.98071289 13.3515625 C16.9719745 16.90199757 17.01679795 20.4498651 17.0625 24 C17.04606445 25.83111328 17.04606445 25.83111328 17.02929688 27.69921875 C17.16654176 35.69053815 17.16654176 35.69053815 21.08984375 42.3984375 C22.36955233 43.62416576 23.67353324 44.82503202 25 46 C26.24593137 47.27769456 27.48553498 48.56158999 28.71875 49.8515625 C29.9765625 51.11197917 31.23698457 52.36979704 32.5 53.625 C33.12519531 54.2540625 33.75039062 54.883125 34.39453125 55.53125 C37.48869786 58.61901047 40.62668212 61.57919814 43.96875 64.3984375 C44.9690625 65.25695312 45.969375 66.11546875 47 67 C47 67.33 47 67.66 47 68 C44.8671875 68.37890625 44.8671875 68.37890625 42 68 C39.82210923 66.02684283 38.01116424 64.15866683 36.125 61.9375 C35.06073781 60.73623269 33.99563962 59.53570549 32.9296875 58.3359375 C32.42276367 57.75682617 31.91583984 57.17771484 31.39355469 56.58105469 C26.58145183 51.121493 21.29911967 45.73839059 15 42 C14.01 42 13.02 42 12 42 C11.34 41.67 10.68 41.34 10 41 C10 40.34 10 39.68 10 39 C10.66 39 11.32 39 12 39 C9.58292317 34.43688567 6.44345788 31.18276327 2.80078125 27.60546875 C2.20573288 27.01325027 1.61068451 26.4210318 0.99760437 25.81086731 C-0.89276401 23.93164001 -2.78998729 22.05951045 -4.6875 20.1875 C-5.97506918 18.90996846 -7.26218365 17.63197846 -8.54882812 16.35351562 C-11.69397895 13.23034457 -14.8452939 10.11351781 -18 7 C-17.34 6.01 -16.68 5.02 -16 4 C-15.34 4 -14.68 4 -14 4 C-14 3.34 -14 2.68 -14 2 C-9.44876717 -0.3490234 -5.01372791 -0.73024101 0 0 Z " fill="#FCBC03" transform="translate(103,100)"/>
<path d="M0 0 C2.37350893 0.26372321 3.64950669 0.6681604 5.39453125 2.3203125 C6.09642578 3.21363281 6.09642578 3.21363281 6.8125 4.125 C10.48740223 8.52531678 14.44868123 12.57516977 18.5 16.625 C19.1288208 17.25809082 19.7576416 17.89118164 20.40551758 18.54345703 C23.49675436 21.62624451 26.63093385 24.58278474 29.96875 27.3984375 C30.9690625 28.25695312 31.969375 29.11546875 33 30 C33 30.33 33 30.66 33 31 C30.8671875 31.37890625 30.8671875 31.37890625 28 31 C25.82210923 29.02684283 24.01116424 27.15866683 22.125 24.9375 C21.06073781 23.73623269 19.99563962 22.53570549 18.9296875 21.3359375 C18.42276367 20.75682617 17.91583984 20.17771484 17.39355469 19.58105469 C12.58145183 14.121493 7.29911967 8.73839059 1 5 C0.01 5 -0.98 5 -2 5 C-2.33 4.34 -2.66 3.68 -3 3 C-1.75 1.4375 -1.75 1.4375 0 0 Z " fill="#FEFEFD" transform="translate(117,137)"/>
<path d="M0 0 C4.64291078 0.56384495 8.13560756 2.61804616 12.0625 5 C17.22581854 8.23176581 17.22581854 8.23176581 23 10 C23.495 11.98 23.495 11.98 24 14 C20.65626525 13.44271087 17.96687001 12.64826111 15 11 C15 10.34 15 9.68 15 9 C14.05125 8.690625 13.1025 8.38125 12.125 8.0625 C9 7 9 7 7 6 C7 5.34 7 4.68 7 4 C0.75887933 4.2836873 -3.84634022 6.73106285 -9.328125 9.625 C-12 11 -12 11 -15 12 C-15 11.01 -15 10.02 -15 9 C-12.87767021 7.82823482 -10.75242209 6.66245215 -8.625 5.5 C-7.72007813 4.99919922 -7.72007813 4.99919922 -6.796875 4.48828125 C-2.2265625 2 -2.2265625 2 0 2 C0 1.34 0 0.68 0 0 Z " fill="#FED613" transform="translate(74,60)"/>
<path d="M0 0 C0.639375 0.639375 1.27875 1.27875 1.9375 1.9375 C2.39382812 2.39253906 2.85015625 2.84757812 3.3203125 3.31640625 C4.57017734 4.56917776 5.81402751 5.82795574 7.0546875 7.08984375 C10.58586613 10.66378752 14.12003042 14.16869508 17.9375 17.4375 C22.89417863 21.68322069 27.43023998 26.34596161 32 31 C31.1875 32.9375 31.1875 32.9375 30 35 C28.515 35.495 28.515 35.495 27 36 C27 35.34 27 34.68 27 34 C27.66 34 28.32 34 29 34 C26.58292317 29.43688567 23.44345788 26.18276327 19.80078125 22.60546875 C19.20573288 22.01325027 18.61068451 21.4210318 17.99760437 20.81086731 C16.10723599 18.93164001 14.21001271 17.05951045 12.3125 15.1875 C11.02493082 13.90996846 9.73781635 12.63197846 8.45117188 11.35351562 C5.30602105 8.23034457 2.1547061 5.11351781 -1 2 C-0.67 1.34 -0.34 0.68 0 0 Z " fill="#FCC217" transform="translate(86,105)"/>
<path d="M0 0 C1.98 0.66 3.96 1.32 6 2 C6 2.99 6 3.98 6 5 C6.66 5 7.32 5 8 5 C8 5.99 8 6.98 8 8 C8.66 8 9.32 8 10 8 C11.55078125 9.57421875 11.55078125 9.57421875 13.3125 11.6875 C16.0613748 14.96761802 18.95346586 17.99337679 22 21 C23.0766937 22.08607811 24.15215012 23.17338378 25.2265625 24.26171875 C26.35934335 25.40367723 27.49215629 26.54560388 28.625 27.6875 C29.19734375 28.26822266 29.7696875 28.84894531 30.359375 29.44726562 C30.91367188 30.00478516 31.46796875 30.56230469 32.0390625 31.13671875 C32.53615723 31.63905029 33.03325195 32.14138184 33.54541016 32.65893555 C35.16744678 34.22441933 35.16744678 34.22441933 38 36 C34 36 34 36 31.22265625 33.67675781 C30.15895559 32.61242369 29.1062091 31.53707036 28.0625 30.453125 C27.50054932 29.88551453 26.93859863 29.31790405 26.35961914 28.73309326 C24.56347822 26.91456605 22.78170326 25.08266401 21 23.25 C19.80040624 22.03033749 18.59989525 20.81157639 17.3984375 19.59375 C15.1856551 17.34831823 12.97832798 15.09781657 10.77734375 12.84082031 C9.11961999 11.14520905 7.45329455 9.45784245 5.76953125 7.78808594 C0 1.9580574 0 1.9580574 0 0 Z " fill="#FEDD39" transform="translate(49,69)"/>
<path d="M0 0 C5.95982408 4.9489991 11.45942623 10.27609206 16.9375 15.75 C17.81212891 16.61238281 18.68675781 17.47476563 19.58789062 18.36328125 C20.82635742 19.59884766 20.82635742 19.59884766 22.08984375 20.859375 C22.84128662 21.60670898 23.59272949 22.35404297 24.36694336 23.12402344 C26 25 26 25 26 27 C26.639375 27.28875 27.27875 27.5775 27.9375 27.875 C30 29 30 29 31 31 C27.66666667 29.33333333 24.33333333 27.66666667 21 26 C21 25.01 21 24.02 21 23 C18.56249975 20.31232422 18.56249975 20.31232422 16 18 C16 19.32 16 20.64 16 22 C14.03533587 23.06775224 12.03144641 24.06553465 10 25 C9.34 24.67 8.68 24.34 8 24 C8.845625 23.278125 9.69125 22.55625 10.5625 21.8125 C13.24141871 19.33190687 13.24141871 19.33190687 13.03125 16.7109375 C11.55028179 12.81778621 8.95612978 10.60343885 5.9375 7.8125 C3.91088554 5.91010481 1.94633772 3.98743686 0 2 C0 1.34 0 0.68 0 0 Z " fill="#FED681" transform="translate(18,38)"/>
<path d="M0 0 C1.25248502 2.50497004 1.11374406 4.20853274 1.09765625 7.0078125 C1.09282227 8.48701172 1.09282227 8.48701172 1.08789062 9.99609375 C1.07951172 11.02863281 1.07113281 12.06117187 1.0625 13.125 C1.05798828 14.16527344 1.05347656 15.20554688 1.04882812 16.27734375 C1.03701952 18.85161962 1.02055075 21.42578146 1 24 C0.34 23.67 -0.32 23.34 -1 23 C-2.33322902 15.93388621 -4.09296839 6.13945259 0 0 Z " fill="#FDB40B" transform="translate(76,113)"/>
<path d="M0 0 C0.84604751 2.94102229 1.13522521 5.56766268 1.125 8.625 C1.12757812 9.40101562 1.13015625 10.17703125 1.1328125 10.9765625 C1 13 1 13 0 15 C-0.66 15 -1.32 15 -2 15 C-2 10.38 -2 5.76 -2 1 C-1.34 0.67 -0.68 0.34 0 0 Z " fill="#FEC211" transform="translate(54,81)"/>
<path d="M0 0 C0.33 0 0.66 0 1 0 C1 6.27 1 12.54 1 19 C-2.14388614 14.80815181 -2.43831791 13.93107644 -2 9 C-1.67 8.67 -1.34 8.34 -1 8 C-0.76924918 6.65252916 -0.58846937 5.29622435 -0.4375 3.9375 C-0.293125 2.638125 -0.14875 1.33875 0 0 Z " fill="#FDB70D" transform="translate(77,40)"/>
<path d="M0 0 C1.98 0.66 3.96 1.32 6 2 C6 2.99 6 3.98 6 5 C6.66 5 7.32 5 8 5 C8 5.99 8 6.98 8 8 C8.66 8.33 9.32 8.66 10 9 C9.01 9.495 9.01 9.495 8 10 C5.07114717 7.17574905 2.45634752 4.24588779 0 1 C0 0.67 0 0.34 0 0 Z " fill="#FED447" transform="translate(49,69)"/>
<path d="M0 0 C1.14926266 0.95421808 2.29430541 1.91352045 3.4375 2.875 C4.07558594 3.40867188 4.71367188 3.94234375 5.37109375 4.4921875 C7 6 7 6 8 8 C5.33333333 6.66666667 2.66666667 5.33333333 0 4 C0 2.68 0 1.36 0 0 Z " fill="#FCA207" transform="translate(33,55)"/>
<path d="M0 0 C0 0.66 0 1.32 0 2 C-2.875 2.125 -2.875 2.125 -6 2 C-6.66 1.34 -7.32 0.68 -8 0 C-5.13822943 -1.43088528 -3.06624227 -0.59991697 0 0 Z " fill="#FECF11" transform="translate(80,108)"/>
<path d="M0 0 C2 1 2 1 2 1 Z " fill="#FFFFFF" transform="translate(12,33)"/>
<path d="" fill="#FFFFFF" transform="translate(0,0)"/>
<path d="M0 0 C2 1 2 1 2 1 Z " fill="#FFFFFF" transform="translate(6,27)"/>
<path d="" fill="#FFFFFF" transform="translate(0,0)"/>
<path d="" fill="#FFFFFF" transform="translate(0,0)"/>
<path d="" fill="#FFFFFF" transform="translate(0,0)"/>
<path d="" fill="#FFFFFF" transform="translate(0,0)"/>
<path d="" fill="#FFFFFF" transform="translate(0,0)"/>
<path d="" fill="#FFFFFF" transform="translate(0,0)"/>
<path d="" fill="#FFFFFF" transform="translate(0,0)"/>
<path d="" fill="#FFFFFF" transform="translate(0,0)"/>
<path d="" fill="#FFFFFF" transform="translate(0,0)"/>
<path d="" fill="#FFFFFF" transform="translate(0,0)"/>
<path d="" fill="#FFFFFF" transform="translate(0,0)"/>
<path d="" fill="#FFFFFF" transform="translate(0,0)"/>
<path d="" fill="#FFFFFF" transform="translate(0,0)"/>
</svg>
