<?xml version="1.0" encoding="UTF-8"?>
<svg version="1.1" xmlns="http://www.w3.org/2000/svg" width="83" height="83">
<path d="M0 0 C2.32080078 1.17407227 2.32080078 1.17407227 4.6953125 2.81640625 C5.57155273 3.41291992 6.44779297 4.00943359 7.35058594 4.62402344 C8.7239209 5.58356934 8.7239209 5.58356934 10.125 6.5625 C12.00717567 7.85119102 13.88998245 9.1389608 15.7734375 10.42578125 C16.67416992 11.04533691 17.57490234 11.66489258 18.50292969 12.30322266 C22.34120354 14.91135751 26.27300281 17.34893882 30.234375 19.765625 C32 21 32 21 33 23 C33.10491646 24.5259052 33.14868902 26.05623617 33.16113281 27.58569336 C33.17074036 28.53685532 33.1803479 29.48801727 33.19024658 30.46800232 C33.19449646 31.49820999 33.19874634 32.52841766 33.203125 33.58984375 C33.20882507 34.64530899 33.21452515 35.70077423 33.22039795 36.78822327 C33.22985489 39.02343745 33.23638468 41.25866561 33.24023438 43.49389648 C33.24995039 46.92000502 33.28097193 50.34551647 33.3125 53.77148438 C33.31902881 55.94010059 33.32427976 58.10872111 33.328125 60.27734375 C33.3404718 61.30552719 33.3528186 62.33371063 33.36553955 63.39305115 C33.36253845 64.34736526 33.35953735 65.30167938 33.35644531 66.28491211 C33.36191376 67.54494301 33.36191376 67.54494301 33.36749268 68.83042908 C32.91435174 71.50564268 32.14739384 72.38612228 30 74 C27.48803711 74.37231445 27.48803711 74.37231445 24.52734375 74.36328125 C23.46322266 74.36263672 22.39910156 74.36199219 21.30273438 74.36132812 C20.19220703 74.34521484 19.08167969 74.32910156 17.9375 74.3125 C16.2659082 74.31733398 16.2659082 74.31733398 14.56054688 74.32226562 C6.26694139 74.26694139 6.26694139 74.26694139 4 72 C3.77294922 69.38623047 3.77294922 69.38623047 3.8046875 66.1171875 C3.81113281 64.95058594 3.81757812 63.78398438 3.82421875 62.58203125 C3.84097656 61.35871094 3.85773437 60.13539062 3.875 58.875 C3.88402344 57.64394531 3.89304688 56.41289063 3.90234375 55.14453125 C3.92597367 52.09627194 3.96184561 49.04811211 4 46 C-0.29 46 -4.58 46 -9 46 C-9 54.91 -9 63.82 -9 73 C-13.11184913 75.05592456 -18.41834288 74.22909008 -22.9375 74.25 C-24.04802734 74.270625 -25.15855469 74.29125 -26.30273438 74.3125 C-27.36685547 74.31765625 -28.43097656 74.3228125 -29.52734375 74.328125 C-30.50437256 74.3374707 -31.48140137 74.34681641 -32.48803711 74.35644531 C-35.49623923 73.92958409 -36.16877094 73.36948828 -38 71 C-38.38768005 68.84388733 -38.38768005 68.84388733 -38.40405273 66.31665039 C-38.42307899 64.89486229 -38.42307899 64.89486229 -38.44248962 63.4443512 C-38.43955399 62.42244186 -38.43661835 61.40053253 -38.43359375 60.34765625 C-38.4388356 59.29597763 -38.44407745 58.24429901 -38.44947815 57.16075134 C-38.45590411 54.93570845 -38.45455397 52.71063161 -38.44604492 50.4855957 C-38.43754112 47.07897465 -38.46627989 43.67403316 -38.49804688 40.26757812 C-38.49965908 38.10677134 -38.49908099 35.94596157 -38.49609375 33.78515625 C-38.50732773 32.76527115 -38.51856171 31.74538605 -38.53013611 30.69459534 C-38.46066017 23.65134614 -38.46066017 23.65134614 -36.23120117 20.49902344 C-35.12675659 19.75700684 -35.12675659 19.75700684 -34 19 C-33.32694824 18.52328857 -32.65389648 18.04657715 -31.96044922 17.55541992 C-30.89334717 16.89956909 -30.89334717 16.89956909 -29.8046875 16.23046875 C-29.01078613 15.73708008 -28.21688477 15.24369141 -27.39892578 14.73535156 C-26.56603027 14.22456055 -25.73313477 13.71376953 -24.875 13.1875 C-18.72348427 9.37958499 -12.73021401 5.54370827 -7.0078125 1.109375 C-4.42382861 -0.31835151 -2.93244595 -0.26968413 0 0 Z " fill="#000000" transform="translate(44,3)"/>
</svg>
