<?xml version="1.0" encoding="UTF-8"?>
<svg version="1.1" xmlns="http://www.w3.org/2000/svg" width="83" height="83">
<path d="M0 0 C0.94617187 -0.020625 1.89234375 -0.04125 2.8671875 -0.0625 C7.93448308 -0.09096795 11.53668879 -0.10534705 15.625 3.25 C17.625 5.25 17.625 5.25 17.8203125 7.4140625 C17.79710937 8.22617188 17.77390625 9.03828125 17.75 9.875 C17.73195312 10.69226562 17.71390625 11.50953125 17.6953125 12.3515625 C17.67210937 12.97804688 17.64890625 13.60453125 17.625 14.25 C18.36105469 14.21519531 19.09710938 14.18039063 19.85546875 14.14453125 C30.00440188 13.86298885 30.00440188 13.86298885 33.625 17.25 C35.96595882 21.65504677 35.93140393 26.00309041 35.92578125 30.875 C35.93006638 31.6995166 35.9343515 32.5240332 35.93876648 33.37353516 C35.94449314 35.11164433 35.94502233 36.84977746 35.94067383 38.58789062 C35.93751037 41.24130188 35.961005 43.89360112 35.98632812 46.546875 C35.98860101 48.23958193 35.98930467 49.93229185 35.98828125 51.625 C35.997491 52.41471191 36.00670074 53.20442383 36.01618958 54.01806641 C35.97776055 58.60991602 35.51754525 61.62572861 32.625 65.25 C29.21224385 67.52517076 27.95967537 67.51072835 23.94775391 67.54052734 C22.78289459 67.55328705 21.61803528 67.56604675 20.4178772 67.57919312 C19.15849335 67.58141876 17.8991095 67.58364441 16.6015625 67.5859375 C15.30809906 67.5925943 14.01463562 67.5992511 12.68197632 67.60610962 C9.94322371 67.61808273 7.20459724 67.62179048 4.46582031 67.62060547 C0.9629302 67.62040238 -2.5391476 67.64769173 -6.04184532 67.68214989 C-9.38988812 67.70979026 -12.73778208 67.70856877 -16.0859375 67.7109375 C-17.34127289 67.72530853 -18.59660828 67.73967957 -19.88998413 67.75448608 C-21.06114777 67.74833282 -22.2323114 67.74217957 -23.43896484 67.73583984 C-24.46694183 67.73868988 -25.49491882 67.74153992 -26.55404663 67.74447632 C-30.13634937 67.11654539 -31.80504006 65.77966284 -34.375 63.25 C-35.64602613 59.4369216 -35.55692734 55.83025528 -35.578125 51.85546875 C-35.58382507 51.03049393 -35.58952515 50.2055191 -35.59539795 49.35554504 C-35.60484123 47.60968302 -35.61137926 45.86380323 -35.61523438 44.11791992 C-35.62492586 41.45785082 -35.65594912 38.79855922 -35.6875 36.13867188 C-35.69403189 34.44010874 -35.69928163 32.7415401 -35.703125 31.04296875 C-35.7154718 30.25214401 -35.7278186 29.46131927 -35.74053955 28.64653015 C-35.721073 23.77744391 -35.03691405 20.48549346 -32.375 16.25 C-29.26437625 13.92367882 -26.42562115 14.03450902 -22.625 14.125 C-21.64015625 14.14304687 -20.6553125 14.16109375 -19.640625 14.1796875 C-18.51914062 14.21449219 -18.51914062 14.21449219 -17.375 14.25 C-17.42140625 13.64671875 -17.4678125 13.0434375 -17.515625 12.421875 C-17.81227749 5.85314136 -17.81227749 5.85314136 -15.5625 2.75 C-10.73333413 -0.56142803 -5.62943678 0.03042939 0 0 Z M-9.375 9.25 C-9.375 10.9 -9.375 12.55 -9.375 14.25 C-3.105 14.25 3.165 14.25 9.625 14.25 C9.625 12.6 9.625 10.95 9.625 9.25 C7.7394747 7.3644747 5.04731169 8.11753311 2.54296875 8.11328125 C1.74503906 8.11714844 0.94710937 8.12101563 0.125 8.125 C-0.67292969 8.12113281 -1.47085938 8.11726562 -2.29296875 8.11328125 C-6.1433932 7.7410039 -6.1433932 7.7410039 -9.375 9.25 Z M-27.375 23.25 C-27.58060851 25.49406999 -27.68924387 27.74734963 -27.75 30 C-27.79898437 31.23234375 -27.84796875 32.4646875 -27.8984375 33.734375 C-27.61232275 37.33064911 -27.61232275 37.33064911 -25.46484375 40.18359375 C-21.11613499 43.09189581 -17.66488575 42.80981922 -12.5625 42.5625 C-11.67884766 42.53994141 -10.79519531 42.51738281 -9.88476562 42.49414062 C-7.7141109 42.43547428 -5.5443331 42.34579979 -3.375 42.25 C-3.375 40.93 -3.375 39.61 -3.375 38.25 C-1.065 38.25 1.245 38.25 3.625 38.25 C3.625 39.57 3.625 40.89 3.625 42.25 C6.68898451 42.38530844 9.74697126 42.4842407 12.8125 42.5625 C13.67681641 42.60439453 14.54113281 42.64628906 15.43164062 42.68945312 C19.80387762 42.77321245 21.99852778 42.66896815 25.71484375 40.18359375 C28.10347948 36.51515728 28.17265995 34.34376095 28 30 C27.94972656 28.13601562 27.94972656 28.13601562 27.8984375 26.234375 C27.95667948 23.36846604 27.95667948 23.36846604 26.625 22.25 C24.97308604 22.15131491 23.31696783 22.12201163 21.66210938 22.12060547 C20.60431274 22.11745331 19.54651611 22.11430115 18.45666504 22.11105347 C17.30565308 22.1130777 16.15464111 22.11510193 14.96875 22.1171875 C13.79614624 22.11623077 12.62354248 22.11527405 11.41540527 22.11428833 C8.93041938 22.1136063 6.44543171 22.11546216 3.96044922 22.11962891 C0.14156113 22.12497681 -3.67720935 22.11968464 -7.49609375 22.11328125 C-9.90364609 22.11394203 -12.31119837 22.11522318 -14.71875 22.1171875 C-15.86976196 22.11516327 -17.02077393 22.11313904 -18.20666504 22.11105347 C-19.26446167 22.11420563 -20.3222583 22.11735779 -21.41210938 22.12060547 C-22.34841187 22.12140106 -23.28471436 22.12219666 -24.24938965 22.12301636 C-26.3593306 22.01310357 -26.3593306 22.01310357 -27.375 23.25 Z M-27.375 49.25 C-27.375 52.22 -27.375 55.19 -27.375 58.25 C-25.70783316 59.91716684 -23.7019386 59.37744882 -21.41210938 59.37939453 C-20.35431274 59.38254669 -19.29651611 59.38569885 -18.20666504 59.38894653 C-17.05565308 59.3869223 -15.90464111 59.38489807 -14.71875 59.3828125 C-13.54614624 59.38376923 -12.37354248 59.38472595 -11.16540527 59.38571167 C-8.68041938 59.3863937 -6.19543171 59.38453784 -3.71044922 59.38037109 C0.10843887 59.37502319 3.92720935 59.38031536 7.74609375 59.38671875 C10.15364609 59.38605797 12.56119837 59.38477682 14.96875 59.3828125 C16.69526794 59.38584885 16.69526794 59.38584885 18.45666504 59.38894653 C20.04335999 59.38421829 20.04335999 59.38421829 21.66210938 59.37939453 C22.59841187 59.37859894 23.53471436 59.37780334 24.49938965 59.37698364 C26.6093306 59.48689643 26.6093306 59.48689643 27.625 58.25 C27.625 55.28 27.625 52.31 27.625 49.25 C19.705 49.58 11.785 49.91 3.625 50.25 C3.625 51.24 3.625 52.23 3.625 53.25 C1.315 53.25 -0.995 53.25 -3.375 53.25 C-3.375 52.26 -3.375 51.27 -3.375 50.25 C-11.295 49.92 -19.215 49.59 -27.375 49.25 Z " fill="#000000" transform="translate(41.375,5.75)"/>
</svg>
