<?xml version="1.0" encoding="UTF-8"?>
<svg version="1.1" xmlns="http://www.w3.org/2000/svg" width="83" height="83">
<path d="M0 0 C1.16485931 -0.0127597 2.32971863 -0.02551941 3.52987671 -0.03866577 C4.78926056 -0.04089142 6.04864441 -0.04311707 7.34619141 -0.04541016 C8.63965485 -0.05206696 9.93311829 -0.05872375 11.26577759 -0.06558228 C14.00453019 -0.07755538 16.74315667 -0.08126313 19.48193359 -0.08007812 C22.9848237 -0.07987504 26.4869015 -0.10716438 29.98959923 -0.14162254 C33.33764203 -0.16926291 36.68553599 -0.16804143 40.03369141 -0.17041016 C41.28902679 -0.18478119 42.54436218 -0.19915222 43.83773804 -0.21395874 C45.00890167 -0.20780548 46.18006531 -0.20165222 47.38671875 -0.1953125 C48.41469574 -0.19816254 49.44267273 -0.20101257 50.50180054 -0.20394897 C54.08410327 0.42398195 55.75279397 1.7608645 58.32275391 4.29052734 C59.28539027 7.17843643 59.4597199 9.04581259 59.48388672 12.04980469 C59.49349426 13.01445648 59.50310181 13.97910828 59.51300049 14.97299194 C59.51725037 16.013638 59.52150024 17.05428406 59.52587891 18.12646484 C59.53157898 19.19796783 59.53727905 20.26947083 59.54315186 21.3734436 C59.55260128 23.64136772 59.55913561 25.90930556 59.56298828 28.17724609 C59.57269626 31.64493772 59.60372174 35.11203728 59.63525391 38.57958984 C59.64178381 40.78271132 59.64703433 42.98583704 59.65087891 45.18896484 C59.66322571 46.22556244 59.67557251 47.26216003 59.68829346 48.33016968 C59.6601849 57.42422986 59.6601849 57.42422986 56.32275391 61.29052734 C52.90999776 63.56569811 51.65742927 63.55125569 47.64550781 63.58105469 C46.4806485 63.59381439 45.31578918 63.6065741 44.1156311 63.61972046 C42.85624725 63.62194611 41.5968634 63.62417175 40.29931641 63.62646484 C39.00585297 63.63312164 37.71238953 63.63977844 36.37973022 63.64663696 C33.64097762 63.65861007 30.90235115 63.66231782 28.16357422 63.66113281 C24.66068411 63.66092973 21.15860631 63.68821907 17.65590858 63.72267723 C14.30786578 63.7503176 10.95997182 63.74909612 7.61181641 63.75146484 C6.35648102 63.76583588 5.10114563 63.78020691 3.80776978 63.79501343 C2.63660614 63.78886017 1.4654425 63.78270691 0.25878906 63.77636719 C-0.76918793 63.77921722 -1.79716492 63.78206726 -2.85629272 63.78500366 C-6.43859546 63.15707273 -8.10728615 61.82019019 -10.67724609 59.29052734 C-11.63988245 56.40261826 -11.81421209 54.5352421 -11.83837891 51.53125 C-11.84798645 50.56659821 -11.85759399 49.60194641 -11.86749268 48.60806274 C-11.87174255 47.56741669 -11.87599243 46.52677063 -11.88037109 45.45458984 C-11.88607117 44.38308685 -11.89177124 43.31158386 -11.89764404 42.20761108 C-11.90709347 39.93968697 -11.9136278 37.67174912 -11.91748047 35.40380859 C-11.92718845 31.93611697 -11.95821393 28.46901741 -11.98974609 25.00146484 C-11.996276 22.79834336 -12.00152652 20.59521765 -12.00537109 18.39208984 C-12.0177179 17.35549225 -12.0300647 16.31889465 -12.04278564 15.25088501 C-12.01467709 6.15682482 -12.01467709 6.15682482 -8.67724609 2.29052734 C-5.26448995 0.01535658 -4.01192146 0.029799 0 0 Z M-3.67724609 9.29052734 C-3.74904573 10.80980772 -3.76116617 12.33220216 -3.73974609 13.85302734 C-3.73072266 14.67931641 -3.72169922 15.50560547 -3.71240234 16.35693359 C-3.70080078 16.99501953 -3.68919922 17.63310547 -3.67724609 18.29052734 C0.35818485 20.33475294 4.40273348 22.35872151 8.45849609 24.36230469 C10.13135437 25.19522862 11.79416969 26.04825143 13.45556641 26.90380859 C14.38111328 27.36142578 15.30666016 27.81904297 16.26025391 28.29052734 C17.07365234 28.70302734 17.88705078 29.11552734 18.72509766 29.54052734 C26.2023853 31.69938333 33.07606238 27.40661747 39.69775391 24.29052734 C40.70708984 23.82646484 41.71642578 23.36240234 42.75634766 22.88427734 C47.33930896 21.04999487 47.33930896 21.04999487 51.32275391 18.29052734 C51.4206596 16.7931461 51.45250255 15.29109842 51.44775391 13.79052734 C51.45033203 12.97583984 51.45291016 12.16115234 51.45556641 11.32177734 C51.54727171 9.29522357 51.54727171 9.29522357 50.32275391 8.29052734 C48.67083995 8.19184225 47.01472173 8.16253898 45.35986328 8.16113281 C44.30206665 8.15798065 43.24427002 8.15482849 42.15441895 8.15158081 C41.00340698 8.15360504 39.85239502 8.15562927 38.66650391 8.15771484 C37.49390015 8.15675812 36.32129639 8.15580139 35.11315918 8.15481567 C32.62817328 8.15413364 30.14318562 8.15598951 27.65820312 8.16015625 C23.83931503 8.16550415 20.02054456 8.16021199 16.20166016 8.15380859 C13.79410781 8.15446937 11.38655554 8.15575053 8.97900391 8.15771484 C7.82799194 8.15569061 6.67697998 8.15366638 5.49108887 8.15158081 C4.43329224 8.15473297 3.37549561 8.15788513 2.28564453 8.16113281 C1.34934204 8.16192841 0.41303955 8.162724 -0.55163574 8.1635437 C-2.66157669 8.05363091 -2.66157669 8.05363091 -3.67724609 9.29052734 Z M-3.67724609 27.29052734 C-3.70610948 31.76968063 -3.72399797 36.24881026 -3.73974609 40.72802734 C-3.748125 42.00742187 -3.75650391 43.28681641 -3.76513672 44.60498047 C-3.76835937 45.81992187 -3.77158203 47.03486328 -3.77490234 48.28662109 C-3.78013916 49.41253662 -3.78537598 50.53845215 -3.79077148 51.69848633 C-3.97270058 54.22023605 -3.97270058 54.22023605 -2.67724609 55.29052734 C-1.02533213 55.38921244 0.63078608 55.41851571 2.28564453 55.41992188 C3.34344116 55.42307404 4.40123779 55.4262262 5.49108887 55.42947388 C6.64210083 55.42744965 7.79311279 55.42542542 8.97900391 55.42333984 C10.15160767 55.42429657 11.32421143 55.4252533 12.53234863 55.42623901 C15.01733453 55.42692104 17.50232219 55.42506518 19.98730469 55.42089844 C23.80619278 55.41555054 27.62496325 55.4208427 31.44384766 55.42724609 C33.8514 55.42658532 36.25895227 55.42530416 38.66650391 55.42333984 C40.39302185 55.42637619 40.39302185 55.42637619 42.15441895 55.42947388 C43.74111389 55.42474564 43.74111389 55.42474564 45.35986328 55.41992188 C46.29616577 55.41912628 47.23246826 55.41833069 48.19714355 55.41751099 C50.3070845 55.52742378 50.3070845 55.52742378 51.32275391 54.29052734 C51.41033394 52.29087752 51.42971967 50.28816625 51.42041016 48.28662109 C51.4171875 47.07167969 51.41396484 45.85673828 51.41064453 44.60498047 C51.40226562 43.32558594 51.39388672 42.04619141 51.38525391 40.72802734 C51.38074219 39.44476563 51.37623047 38.16150391 51.37158203 36.83935547 C51.35974936 33.65636712 51.34326459 30.47346972 51.32275391 27.29052734 C43.85253397 30.34405906 36.60237316 33.5598234 29.42822266 37.25146484 C21.70526282 39.8354992 14.84022851 35.503079 7.94775391 32.22802734 C5.96141276 31.29827762 3.97446737 30.36981734 1.98681641 29.44287109 C1.11492676 29.03029053 0.24303711 28.61770996 -0.65527344 28.19262695 C-2.46043803 27.22262111 -2.46043803 27.22262111 -3.67724609 27.29052734 Z " fill="#000000" transform="translate(17.67724609375,9.70947265625)"/>
</svg>
