<?xml version="1.0" encoding="UTF-8"?>
<svg version="1.1" xmlns="http://www.w3.org/2000/svg" width="83" height="83">
<path d="M0 0 C9.83214414 5.87488045 16.17410002 13.06378403 19.203125 24.31640625 C20.32468546 37.51430375 18.91029611 47.76495103 10.26171875 58.2734375 C2.98628975 65.49364503 -5.9229368 68.71741726 -16.046875 68.69140625 C-27.18533572 68.63533217 -35.82131358 65.35296623 -43.796875 57.31640625 C-51.39950438 47.04390274 -52.98449619 36.79402224 -51.796875 24.31640625 C-50.01753709 16.09096393 -45.09683805 8.49878778 -38.33203125 3.4921875 C-27.11709587 -3.47287763 -12.30220984 -6.00465004 0 0 Z M-35.796875 12.31640625 C-41.45528072 18.50793799 -44.63306092 24.79807403 -44.796875 33.31640625 C-44.18676751 41.72233165 -41.04864219 48.43074035 -34.80078125 54.140625 C-28.2606096 59.24665693 -21.77014627 61.74995013 -13.375 61.140625 C-4.94139619 59.84415485 1.39471573 55.97324282 6.640625 49.25390625 C11.32124851 42.41398958 12.90219205 35.58546361 11.640625 27.37890625 C9.72028475 19.09982344 5.01140113 13.21202716 -1.92578125 8.46484375 C-13.18873456 1.55188284 -26.11541421 3.89372048 -35.796875 12.31640625 Z " fill="#000000" transform="translate(57.796875,8.68359375)"/>
<path d="M0 0 C3.5 0.125 3.5 0.125 4.5 1.125 C4.625 4.625 4.625 4.625 4.5 8.125 C3.5 9.125 3.5 9.125 0 9.25 C-3.5 9.125 -3.5 9.125 -4.5 8.125 C-4.625 4.625 -4.625 4.625 -4.5 1.125 C-3.5 0.125 -3.5 0.125 0 0 Z " fill="#000000" transform="translate(41.5,36.875)"/>
<path d="M0 0 C0.99 0.103125 1.98 0.20625 3 0.3125 C5 3.3125 5 3.3125 4.6875 5.9375 C4 8.3125 4 8.3125 3 9.3125 C0.0625 9.5 0.0625 9.5 -3 9.3125 C-5 7.3125 -5 7.3125 -5.25 4.8125 C-4.86676958 0.9801958 -3.75087075 0.3907157 0 0 Z " fill="#000000" transform="translate(58,36.6875)"/>
<path d="M0 0 C3.0625 0.1875 3.0625 0.1875 5.0625 2.1875 C5.3125 4.6875 5.3125 4.6875 5.0625 7.1875 C3.0625 9.1875 3.0625 9.1875 0.0625 9.5 C-0.9275 9.396875 -1.9175 9.29375 -2.9375 9.1875 C-4.9375 6.1875 -4.9375 6.1875 -4.625 3.5625 C-3.63731654 0.1505026 -3.65603948 0.23336422 0 0 Z " fill="#000000" transform="translate(24.9375,36.8125)"/>
</svg>
