<?xml version="1.0" encoding="UTF-8"?>
<svg version="1.1" xmlns="http://www.w3.org/2000/svg" width="83" height="83">
<path d="M0 0 C12.64976505 12.30787951 11.58395931 33.82423178 13.3125 50.25 C12.26449219 50.25257812 11.21648437 50.25515625 10.13671875 50.2578125 C8.75776973 50.29533492 7.37886426 50.33448241 6 50.375 C5.30970703 50.37242188 4.61941406 50.36984375 3.90820312 50.3671875 C1.60549308 50.39483876 1.60549308 50.39483876 -1.6875 51.25 C-3.58447889 54.075166 -3.58447889 54.075166 -4.6875 57.25 C-8.94457911 61.41247736 -12.75446476 64.1933076 -18.85546875 64.28125 C-25.46668745 63.83828727 -29.51413854 61.65831946 -34 56.6875 C-35.6875 54.25 -35.6875 54.25 -36.6875 51.25 C-41.6375 50.92 -46.5875 50.59 -51.6875 50.25 C-51.20376309 45.74970285 -50.71150861 41.25193231 -50.19824219 36.75512695 C-50.02669065 35.23027797 -49.85989087 33.70488563 -49.69824219 32.17895508 C-47.16341732 8.34064835 -47.16341732 8.34064835 -38.6875 0.25 C-26.40717724 -9.39113059 -12.59911751 -8.20407652 0 0 Z M-35.1875 8.625 C-40.25734059 14.84439747 -40.42818611 22.96883888 -41.3125 30.625 C-41.76625 34.46125 -42.22 38.2975 -42.6875 42.25 C-27.1775 42.25 -11.6675 42.25 4.3125 42.25 C3.9 38.475625 3.4875 34.70125 3.0625 30.8125 C2.94229492 29.64146729 2.82208984 28.47043457 2.69824219 27.26391602 C1.75653712 19.2465322 0.25700311 12.32834416 -5.4375 6.375 C-15.33745506 -0.09804754 -26.64194239 -0.84440167 -35.1875 8.625 Z M-27.6875 50.25 C-24.37467638 55.3099297 -24.37467638 55.3099297 -20.75 56.25 C-17.08457859 56.25 -15.55693977 55.48178648 -12.6875 53.25 C-12.0275 52.26 -11.3675 51.27 -10.6875 50.25 C-16.2975 50.25 -21.9075 50.25 -27.6875 50.25 Z " fill="#000000" transform="translate(60.6875,12.75)"/>
</svg>
