<?xml version="1.0" encoding="UTF-8"?>
<svg version="1.1" xmlns="http://www.w3.org/2000/svg" width="83" height="83">
<path d="M0 0 C0.74548096 0.00572021 1.49096191 0.01144043 2.2590332 0.01733398 C10.37938891 0.27916719 16.435649 2.78970598 22.0625 8.75 C28.42206264 17.13959252 29.14209136 24.68213955 30.6875 35.5 C10.5575 35.5 -9.5725 35.5 -30.3125 35.5 C-27.02609223 12.49514563 -27.02609223 12.49514563 -17.31640625 4.68359375 C-11.46682347 1.22857702 -6.72712803 -0.06008402 0 0 Z M-13.125 12.125 C-17.68957562 16.44599038 -19.80965183 21.48860733 -21.3125 27.5 C-7.1225 27.5 7.0675 27.5 21.6875 27.5 C18.80950142 18.86600425 17.20681328 14.38466805 9.75 9.625 C1.7294259 6.67866666 -6.22988922 6.70635834 -13.125 12.125 Z " fill="#000000" transform="translate(41.3125,37.5)"/>
<path d="M0 0 C4.07707365 3.50817965 5.49140841 6.48231186 6.0625 11.8125 C5.50355046 17.02936233 4.02542735 20.10510214 0.125 23.625 C-4.34275829 26.71806343 -7.95720043 26.97064288 -13.3125 26.3125 C-18.43012818 23.65891502 -21.48955942 20.78132174 -23.3125 15.3125 C-23.7739719 10.51319221 -23.35207815 7.02652507 -20.703125 2.89453125 C-14.84015084 -3.77542531 -7.44268374 -3.79155587 0 0 Z M-13.0625 7.5 C-15.58580408 10.05383721 -15.58580408 10.05383721 -15.3125 12.9375 C-14.24284979 15.47791924 -13.59368362 16.76455397 -11.3125 18.3125 C-7.9899045 18.90886329 -6.73794497 18.60359393 -3.9375 16.6875 C-2.02427592 14.37086877 -2.02427592 14.37086877 -2.3125 11.25 C-3.44154363 7.93343432 -4.24973463 6.93396402 -7.3125 5.3125 C-10.50685334 5.00123822 -10.50685334 5.00123822 -13.0625 7.5 Z " fill="#000000" transform="translate(50.3125,8.6875)"/>
</svg>
